HIERARCHY
ROOT hip
{
	OFFSET 0.000000 0.000000 0.000000 
	CHANNELS 6 Xposition Yposition Zposition Xrotation Zrotation Yrotation
	JOINT abdomen
	{
		OFFSET 0.000000 3.402643 0.000000 
		CHANNELS 3 Xrotation Zrotation Yrotation
		JOINT chest
		{
			OFFSET 0.000000 8.438565 -0.680529 
			CHANNELS 3 Xrotation Zrotation Yrotation
			JOINT neck
			{
				OFFSET 0.000000 10.207942 -0.272212 
				CHANNELS 3 Xrotation Zrotation Yrotation
				JOINT head
				{
					OFFSET 0.000000 3.130431 0.000000 
					CHANNELS 3 Xrotation Zrotation Yrotation
					End Site
					{
						OFFSET 0.000000 3.130435 0.000000 
					}
				}
			}
			JOINT lCollar
			{
				OFFSET 3.470700 6.669187 -0.816635 
				CHANNELS 3 Yrotation Zrotation Xrotation
				JOINT lShldr
				{
					OFFSET 3.198488 0.000000 0.000000 
					CHANNELS 3 Zrotation Yrotation Xrotation
					JOINT lForeArm
					{
						OFFSET 10.139888 0.000000 0.000000 
						CHANNELS 3 Yrotation Zrotation Xrotation
						JOINT lHand
						{
							OFFSET 8.370511 0.000000 0.000000 
							CHANNELS 3 Zrotation Yrotation Xrotation
							End Site
							{
								OFFSET 4.083176 0.000000 0.000000 
							}
						}
					}
				}
			}
			JOINT rCollar
			{
				OFFSET -3.470700 6.669187 -0.816635 
				CHANNELS 3 Yrotation Zrotation Xrotation
				JOINT rShldr
				{
					OFFSET -3.198488 0.000000 0.000000 
					CHANNELS 3 Zrotation Yrotation Xrotation
					JOINT rForeArm
					{
						OFFSET -10.139888 0.000000 0.000000 
						CHANNELS 3 Yrotation Zrotation Xrotation
						JOINT rHand
						{
							OFFSET -8.370511 0.000000 0.000000 
							CHANNELS 3 Zrotation Yrotation Xrotation
							End Site
							{
								OFFSET -4.083176 0.000000 0.000000 
							}
						}
					}
				}
			}
		}
	}
	JOINT lThigh
	{
		OFFSET 5.308129 -1.633274 1.361059 
		CHANNELS 3 Xrotation Zrotation Yrotation
		JOINT lShin
		{
			OFFSET -2.041588 -20.007561 0.000000 
			CHANNELS 3 Xrotation Zrotation Yrotation
			JOINT lFoot
			{
				OFFSET 0.000000 -19.190928 -1.224953 
				CHANNELS 3 Xrotation Yrotation Zrotation
				End Site
				{
					OFFSET 0.000000 -2.449906 4.627600 
				}
			}
		}
	}
	JOINT rThigh
	{
		OFFSET -5.308129 -1.633274 1.361059 
		CHANNELS 3 Xrotation Zrotation Yrotation
		JOINT rShin
		{
			OFFSET 2.041588 -20.007561 0.000000 
			CHANNELS 3 Xrotation Zrotation Yrotation
			JOINT rFoot
			{
				OFFSET 0.000000 -19.190928 -1.224953 
				CHANNELS 3 Xrotation Yrotation Zrotation
				End Site
				{
					OFFSET 0.000000 -2.449906 4.627600 
				}
			}
		}
	}
}
MOTION
Frames: 9
Frame Time: 0.033333
-2.011378 50.576309 -0.595528 -4.941407 -0.722656 -164.658203 29.822811 -7.874106 -5.629282 -19.785156 8.603517 1.554196 51.063168 8.107644 2.471410 -45.126957 -1.708984 -3.320313 2.000000 -2.000000 0.000000 -96.357422 -1.298828 -38.047092 -114.159805 1.188992 -2.813764 -34.854324 36.709740 -29.229261 -2.000000 2.000000 0.000000 75.869141 -30.000000 -17.871092 115.882790 -1.287200 -2.975490 13.915850 -26.940365 -35.235023 -10.485309 16.203747 11.219399 29.708778 -4.527114 -2.835824 -9.804604 -11.388608 -4.624437 -0.254083 -12.968830 -25.885704 28.158445 4.493907 2.497222 -18.170679 -10.285955 9.601279 
-1.940593 50.521168 -0.629575 -4.052734 -1.064453 -165.166016 29.822811 -7.874106 -5.629282 -19.775391 8.779297 1.759303 51.063168 8.107644 2.471410 -45.839844 -2.021484 -3.144531 2.000000 -2.000000 0.000000 -91.337891 -1.289063 -39.941406 -108.183777 0.954446 -2.809735 -35.192192 39.302795 -34.649128 -2.000000 2.000000 0.000000 70.175781 -27.080078 -15.580618 109.566551 -0.845098 -3.008590 15.632212 -29.361767 -40.973087 -9.403456 16.159216 10.980868 29.346796 -4.546571 -2.626401 -9.446950 -10.975131 -4.976460 0.583533 -12.827101 -25.795918 28.334446 4.476922 2.352156 -18.718304 -10.032901 9.511835 
-1.902685 50.536915 -0.738706 -2.832031 -1.240234 -166.074417 29.822811 -7.874106 -5.629282 -19.589846 8.945313 2.167969 51.063168 8.107644 2.471410 -45.878906 -2.353515 -2.646485 2.000000 -2.000000 0.000000 -86.796875 -1.464844 -42.294922 -105.537376 0.856953 -2.804079 -36.675125 40.491821 -38.742573 -2.000000 2.000000 0.000000 65.117188 -24.902344 -15.087892 106.583694 -0.541909 -3.176744 17.193060 -30.367052 -45.308456 -7.840948 16.529802 11.220177 29.335587 -4.546382 -2.663616 -10.227395 -10.699562 -5.580951 1.258966 -12.948745 -25.490772 28.320211 4.046735 2.367230 -17.664053 -9.588632 9.317511 
-1.889389 50.544796 -1.011571 -1.611328 -1.582031 -166.972916 29.822811 -7.874106 -5.629282 -19.580078 9.121095 2.198814 51.063168 8.107644 2.471410 -45.205078 -2.773437 -2.178207 2.000000 -2.000000 0.000000 -84.667969 -2.177735 -44.258186 -111.335602 1.426364 -2.768903 -38.609936 38.327053 -38.672741 -2.000000 2.000000 0.000000 62.128910 -24.951172 -17.054899 112.196495 -1.140561 -3.143015 17.584215 -29.466154 -44.601707 -5.916870 16.556034 11.632386 29.719013 -4.629630 -2.725820 -11.267855 -10.278111 -5.957124 2.615047 -12.878581 -24.912491 28.508511 4.037428 2.389807 -17.674339 -9.590766 9.338237 
-1.891563 50.544796 -1.448570 -0.205078 -1.943359 -168.046875 29.822811 -7.874106 -5.629282 -19.228516 9.101563 2.265625 51.063168 8.107644 2.471410 -42.080082 -3.525390 -1.367188 2.000000 -2.000000 0.000000 -82.988281 -3.007812 -47.148945 -120.646072 1.603979 -2.573889 -40.711670 34.421608 -36.610237 -2.000000 2.000000 0.000000 59.716793 -26.064453 -20.263670 121.316238 -1.697399 -3.155659 16.704180 -27.974501 -41.975307 -3.760278 16.620924 11.699594 29.343380 -4.631071 -2.684874 -11.413921 -9.535269 -6.349638 4.149430 -12.830915 -24.373299 28.508503 4.037497 2.389823 -17.515612 -9.124936 9.076628 
-1.911640 50.521168 -1.974751 1.230469 -2.119140 -169.179688 29.822811 -7.874106 -5.629282 -18.876955 8.916017 2.285156 51.063168 8.107644 2.471410 -36.689457 -4.765625 -0.351563 2.000000 -2.000000 0.000000 -79.599609 -3.339844 -49.199223 -123.637665 1.713614 -2.707384 -42.282288 33.058765 -36.167755 -2.000000 2.000000 0.000000 55.878906 -27.031252 -21.342327 125.352074 -1.867485 -2.921040 16.246254 -27.731707 -41.246185 -1.134109 16.602322 12.240010 29.363157 -4.631105 -2.686503 -12.573490 -8.995500 -6.983705 6.002520 -12.847953 -23.690201 28.508825 4.037616 2.380140 -16.860746 -8.554665 8.920487 
-1.940628 50.521168 -2.428577 2.636719 -2.460918 -170.303070 29.822811 -7.874106 -5.629282 -18.535156 8.720703 2.130387 51.063168 8.107644 2.471410 -31.455080 -6.074218 0.595703 2.000000 -2.000000 0.000000 -73.603516 -3.437500 -50.673828 -116.620369 1.277300 -2.809123 -42.513958 35.317448 -38.083778 -2.000000 2.000000 0.000000 48.486328 -26.513670 -18.828123 120.628555 -1.326761 -2.967999 16.784410 -29.734198 -43.820683 1.355055 16.487804 12.910757 29.381527 -4.650361 -2.653936 -13.268637 -8.404112 -7.622604 7.527578 -13.172440 -22.644148 29.022108 4.028765 2.436733 -16.281643 -8.432026 8.673125 
-1.950522 50.442383 -2.946896 4.042969 -2.646484 -171.416016 29.822811 -7.874106 -5.629282 -18.183594 8.535157 2.148437 51.063168 8.107644 2.471410 -28.828129 -6.533203 1.074219 2.000000 -2.000000 0.000000 -66.298828 -3.203125 -51.845707 -105.010056 0.837455 -2.802948 -42.714149 38.856220 -41.401699 -2.000000 2.000000 0.000000 39.638676 -25.000000 -14.476784 112.371979 -1.160623 -3.134398 16.983011 -32.990669 -47.101223 3.113700 16.580179 13.261961 29.947002 -4.563560 -2.689316 -14.015963 -7.748043 -8.032843 8.928782 -13.256073 -22.264797 29.561235 3.891276 2.445441 -16.210386 -7.553144 8.697515 
-1.955324 50.363594 -3.425653 -174.921875 -177.226563 7.460465 29.822811 -7.874106 -5.629282 -17.822266 8.515625 2.032696 51.063168 8.107644 2.471410 -29.521484 -6.181640 1.279297 2.000000 -2.000000 0.000000 -58.271484 -2.812500 -53.437500 -92.191353 0.323716 -2.890484 -42.693882 43.041656 -45.057377 -2.000000 2.000000 0.000000 30.927734 -22.421875 -10.775209 103.233231 -0.602094 -3.150882 18.254303 -36.346638 -51.762791 5.212745 16.247337 13.694326 29.945343 -4.573172 -2.701395 -14.210405 -7.533860 -8.529142 10.123780 -13.533660 -21.359007 29.746235 3.988925 2.493261 -16.190220 -7.559745 8.240787 
